# Blender v2.79 (sub 0) OBJ File: 'mayanPyramid1Esercizio.blend'
# www.blender.org
mtllib mayanPyramid.mtl
o Pyramid_Cube
v 10.000000 0.105066 -9.999999
v 10.000000 0.105066 10.000000
v -10.000001 0.105066 9.999998
v -9.999996 0.105066 -10.000004
v 9.000004 1.000000 -8.999995
v 8.999994 1.000000 9.000006
v -9.000004 1.000000 8.999997
v -9.000000 1.000000 -9.000000
v 10.000005 1.000000 -9.999994
v 9.999993 1.000000 10.000006
v -9.999999 1.000000 -10.000000
v -10.000004 1.000000 9.999996
v 8.000003 2.000000 -7.999995
v 7.999994 2.000000 8.000006
v -8.000000 2.000000 -8.000000
v -8.000003 2.000000 7.999997
v 9.000004 2.000000 -8.999995
v 8.999994 2.000000 9.000006
v -9.000000 2.000000 -9.000000
v -9.000004 2.000000 8.999997
v 7.000002 3.000000 -6.999996
v 6.999994 3.000000 7.000005
v -7.000000 3.000000 -6.999999
v -7.000003 3.000000 6.999998
v 8.000003 3.000000 -7.999995
v 7.999994 3.000000 8.000006
v -8.000000 3.000000 -8.000000
v -8.000003 3.000000 7.999997
v 6.000001 4.000000 -5.999996
v 5.999995 4.000000 6.000005
v -6.000000 4.000000 -5.999999
v -6.000003 4.000000 5.999998
v 7.000002 4.000000 -6.999996
v 6.999994 4.000000 7.000005
v -7.000000 4.000000 -6.999999
v -7.000003 4.000000 6.999998
v 5.000001 5.000000 -4.999996
v 4.999995 5.000000 5.000004
v -5.000000 5.000000 -4.999999
v -5.000002 5.000000 4.999999
v 6.000001 5.000000 -5.999996
v 5.999995 5.000000 6.000005
v -6.000000 5.000000 -5.999999
v -6.000003 5.000000 5.999998
v 4.000000 6.000000 -3.999997
v 3.999996 6.000000 4.000004
v -4.000001 6.000000 -3.999999
v -4.000002 6.000000 3.999999
v 5.000001 6.000000 -4.999996
v 4.999995 6.000000 5.000004
v -5.000000 6.000000 -4.999999
v -5.000002 6.000000 4.999999
v 3.000000 7.000000 -2.999997
v 2.999997 7.000000 3.000003
v -3.000001 7.000000 -2.999998
v -3.000002 7.000000 3.000000
v 4.000000 7.000000 -3.999997
v 3.999996 7.000000 4.000004
v -4.000001 7.000000 -3.999999
v -4.000002 7.000000 3.999999
v 3.000000 10.000000 -2.999997
v 2.999997 10.000000 3.000003
v -3.000001 10.000000 -2.999998
v -3.000002 10.000000 3.000000
v -1.499998 0.105066 -10.000001
v -1.500000 0.105066 9.976006
v -1.499997 1.000000 -9.999998
v -1.500005 1.000000 10.000001
v -1.499998 1.000000 -8.999997
v -1.500005 1.000000 9.000001
v -1.499998 2.000000 -8.999997
v -1.500005 2.000000 9.000001
v -1.499998 2.000000 -7.999997
v -1.500004 2.000000 8.000001
v -1.499998 3.000000 -7.999997
v -1.500004 3.000000 8.000001
v -1.499999 3.000000 -6.999998
v -1.500004 3.000000 7.000002
v -1.499999 4.000000 -6.999998
v -1.500004 4.000000 7.000002
v -1.499999 4.000000 -5.999998
v -1.500004 4.000000 6.000001
v -1.499999 5.000000 -5.999998
v -1.500004 5.000000 6.000001
v -1.500000 5.000000 -4.999998
v -1.500003 5.000000 5.000001
v -1.500000 6.000000 -4.999998
v -1.500003 6.000000 5.000001
v -1.500000 6.000000 -3.999998
v -1.500003 6.000000 3.976009
v -1.500000 7.000000 -3.999998
v -1.500003 7.000000 4.000001
v -1.500000 7.000000 -2.999998
v -1.500003 7.000000 3.000001
v -1.500000 10.000000 -2.999998
v -1.500003 10.000000 3.000001
v 1.500002 0.105066 -10.000001
v 1.500000 0.105066 9.976006
v 1.500002 1.000000 -9.999998
v 1.499995 1.000000 10.000001
v 1.500002 1.000000 -8.999997
v 1.499995 1.000000 9.000001
v 1.500002 2.000000 -8.999997
v 1.499995 2.000000 9.000001
v 1.500002 2.000000 -7.999997
v 1.499996 2.000000 8.000001
v 1.500002 3.000000 -7.999997
v 1.499996 3.000000 8.000001
v 1.500001 3.000000 -6.999998
v 1.499996 3.000000 7.000002
v 1.500001 4.000000 -6.999998
v 1.499996 4.000000 7.000002
v 1.500000 4.000000 -5.999998
v 1.499996 4.000000 6.000001
v 1.500000 5.000000 -5.999998
v 1.499996 5.000000 6.000001
v 1.500000 5.000000 -4.999998
v 1.499996 5.000000 5.000001
v 1.500000 6.000000 -4.999998
v 1.499996 6.000000 5.000001
v 1.500000 6.000000 -3.999998
v 1.499997 6.000000 3.976009
v 1.500000 7.000000 -3.999998
v 1.499997 7.000000 4.000001
v 1.499999 7.000000 -2.999998
v 1.499997 7.000000 3.000001
v 1.499999 10.000000 -2.999998
v 1.499997 10.000000 3.000001
v 1.500000 0.111849 10.890957
v -1.500000 0.111849 10.890957
v 1.500002 0.105066 -10.000001
v -1.499998 0.105066 -10.000001
v 1.500000 6.000000 -3.999998
v -1.500000 6.000000 -3.999998
v -1.499998 0.105066 -10.000001
v -1.500000 6.000000 -3.999998
v 1.500002 0.105066 -10.000001
v 1.500000 6.000000 -3.999998
v -1.499998 0.105066 -10.000001
v -1.500000 6.000000 -3.999998
v 1.500002 0.105066 -10.000001
v 1.500000 6.000000 -3.999998
v -1.499998 0.105066 -10.885128
v 1.500002 0.105066 -10.885128
v 1.300000 7.000000 -3.999998
v 1.300002 0.105066 -10.885128
v -1.300000 7.000000 -3.999998
v -1.299998 0.105066 -10.885128
v -1.499998 0.458368 -10.885128
v -1.500000 7.353302 -3.999997
v -1.299998 0.458368 -10.885128
v -1.300000 7.353302 -3.999997
v 1.500002 0.458368 -10.885128
v 1.500000 7.353302 -4.002295
v 1.300002 0.458368 -10.885128
v 1.300000 7.353302 -4.002295
v -1.300000 6.999999 -3.000002
v 1.500000 7.006518 -2.997451
v -1.300000 7.353301 -3.000002
v -1.500000 7.353301 -3.000002
v 1.300000 7.006518 -2.997451
v 1.500000 7.359820 -2.999748
v 1.300000 7.359820 -2.999748
v 1.300002 0.305066 -10.885128
v 1.300002 0.305066 -10.685128
v 1.300002 0.305066 -10.885128
v 1.300002 0.305066 -10.685128
v 1.300002 0.105066 -10.885128
v -1.299998 0.105066 -10.885128
v 1.300002 0.305066 -10.885128
v 1.300002 0.305066 -10.885128
v 1.300002 0.305066 -10.685128
v -1.300003 0.305066 -10.885128
v -1.300003 0.305066 -10.685128
v 1.300002 0.305066 -10.685128
v -1.299998 0.305066 -10.685128
v 1.300002 0.505066 -10.685128
v 1.300002 0.505066 -10.685128
v 1.300002 0.505066 -10.485128
v -1.300003 0.505066 -10.685128
v -1.300003 0.505066 -10.485128
v 1.300002 0.505066 -10.485128
v -1.299998 0.505066 -10.485128
v 1.300002 0.705066 -10.485128
v 1.300002 0.705066 -10.485128
v 1.300002 0.705066 -10.285129
v -1.300003 0.705066 -10.485128
v -1.300003 0.705066 -10.285129
v 1.300002 0.705066 -10.285129
v -1.299998 0.705066 -10.285129
v 1.300002 0.905066 -10.285129
v 1.300002 0.905066 -10.285129
v 1.300002 0.905066 -10.085129
v -1.300003 0.905066 -10.285129
v -1.300003 0.905066 -10.085129
v 1.300002 0.905066 -10.085129
v -1.299998 0.905066 -10.085129
v 1.300002 1.105066 -10.085129
v 1.300002 1.105066 -10.085129
v 1.300002 1.105066 -9.885129
v -1.300003 1.105066 -10.085129
v -1.300003 1.105066 -9.885129
v 1.300002 1.105066 -9.885129
v -1.299998 1.105066 -9.885129
v 1.300002 1.305066 -9.885129
v 1.300002 1.305066 -9.885129
v 1.300002 1.305066 -9.685129
v -1.300003 1.305066 -9.885129
v -1.300003 1.305066 -9.685129
v 1.300002 1.305066 -9.685129
v -1.299998 1.305066 -9.685129
v 1.300002 1.505066 -9.685129
v 1.300002 1.505066 -9.685129
v 1.300002 1.505066 -9.485129
v -1.300003 1.505066 -9.685129
v -1.300003 1.505066 -9.485129
v 1.300002 1.505066 -9.485129
v -1.299998 1.505066 -9.485129
v 1.300002 1.705066 -9.485129
v 1.300002 1.705066 -9.485129
v 1.300002 1.705066 -9.285130
v -1.300003 1.705066 -9.485129
v -1.300003 1.705066 -9.285130
v 1.300002 1.705066 -9.285130
v -1.299998 1.705066 -9.285130
v 1.300002 1.905066 -9.285130
v 1.300002 1.905066 -9.285130
v 1.300002 1.905066 -9.085130
v -1.300003 1.905066 -9.285130
v -1.300003 1.905066 -9.085130
v 1.300002 1.905066 -9.085130
v -1.299998 1.905066 -9.085130
v 1.300002 2.105066 -9.085130
v 1.300002 2.105066 -9.085130
v 1.300002 2.105066 -8.885130
v -1.300003 2.105066 -9.085130
v -1.300003 2.105066 -8.885130
v 1.300002 2.105066 -8.885130
v -1.299998 2.105066 -8.885130
v 1.300002 2.305066 -8.885130
v 1.300002 2.305066 -8.885130
v 1.300002 2.305066 -8.685130
v -1.300003 2.305066 -8.885130
v -1.300003 2.305066 -8.685130
v 1.300002 2.305066 -8.685130
v -1.299998 2.305066 -8.685130
v 1.300002 2.505066 -8.685130
v 1.300002 2.505066 -8.685130
v 1.300002 2.505066 -8.485130
v -1.300003 2.505066 -8.685130
v -1.300003 2.505066 -8.485130
v 1.300002 2.505066 -8.485130
v -1.299998 2.505066 -8.485130
v 1.300002 2.705066 -8.485130
v 1.300002 2.705066 -8.485130
v 1.300002 2.705066 -8.285131
v -1.300003 2.705066 -8.485130
v -1.300003 2.705066 -8.285131
v 1.300002 2.705066 -8.285131
v -1.299998 2.705066 -8.285131
v 1.300002 2.905066 -8.285131
v 1.300002 2.905066 -8.285131
v 1.300002 2.905066 -8.085131
v -1.300003 2.905066 -8.285131
v -1.300003 2.905066 -8.085131
v 1.300002 2.905066 -8.085131
v -1.299998 2.905066 -8.085131
v 1.300002 3.105066 -8.085131
v 1.300002 3.105066 -8.085131
v 1.300002 3.105066 -7.885131
v -1.300003 3.105066 -8.085131
v -1.300003 3.105066 -7.885131
v 1.300002 3.105066 -7.885131
v -1.299998 3.105066 -7.885131
v 1.300002 3.305066 -7.885131
v 1.300002 3.305066 -7.885131
v 1.300002 3.305066 -7.685131
v -1.300003 3.305066 -7.885131
v -1.300003 3.305066 -7.685131
v 1.300002 3.305066 -7.685131
v -1.299998 3.305066 -7.685131
v 1.300002 3.505066 -7.685131
v 1.300002 3.505066 -7.685131
v 1.300002 3.505066 -7.485131
v -1.300003 3.505066 -7.685131
v -1.300003 3.505066 -7.485131
v 1.300002 3.505066 -7.485131
v -1.299998 3.505066 -7.485131
v 1.300002 3.705066 -7.485131
v 1.300002 3.705066 -7.485131
v 1.300002 3.705066 -7.285131
v -1.300003 3.705066 -7.485131
v -1.300003 3.705066 -7.285131
v 1.300002 3.705066 -7.285131
v -1.299998 3.705066 -7.285131
v 1.300002 3.905066 -7.285131
v 1.300002 3.905066 -7.285131
v 1.300002 3.905066 -7.085132
v -1.300003 3.905066 -7.285131
v -1.300003 3.905066 -7.085132
v 1.300002 3.905066 -7.085132
v -1.299998 3.905066 -7.085132
v 1.300002 4.105066 -7.085132
v 1.300002 4.105066 -7.085132
v 1.300002 4.105066 -6.885132
v -1.300003 4.105066 -7.085132
v -1.300003 4.105066 -6.885132
v 1.300002 4.105066 -6.885132
v -1.299998 4.105066 -6.885132
v 1.300002 4.305067 -6.885132
v 1.300002 4.305067 -6.885132
v 1.300002 4.305067 -6.685132
v -1.300003 4.305067 -6.885132
v -1.300003 4.305067 -6.685132
v 1.300002 4.305066 -6.685132
v -1.299998 4.305066 -6.685132
v 1.300002 4.505066 -6.685132
v 1.300002 4.505066 -6.685132
v 1.300002 4.505066 -6.485132
v -1.300003 4.505066 -6.685132
v -1.300003 4.505066 -6.485132
v 1.300002 4.505066 -6.485132
v -1.299998 4.505066 -6.485132
v 1.300002 4.705066 -6.485132
v 1.300002 4.705066 -6.485132
v 1.300002 4.705066 -6.285132
v -1.300003 4.705066 -6.485132
v -1.300003 4.705066 -6.285132
v 1.300002 4.705066 -6.285132
v -1.299998 4.705066 -6.285132
v 1.300002 4.905066 -6.285132
v 1.300002 4.905066 -6.285132
v 1.300002 4.905066 -6.085133
v -1.300003 4.905066 -6.285132
v -1.300003 4.905066 -6.085133
v 1.300002 4.905066 -6.085133
v -1.299998 4.905066 -6.085133
v 1.300002 5.105066 -6.085133
v 1.300002 5.105066 -6.085133
v 1.300002 5.105066 -5.885133
v -1.300003 5.105066 -6.085133
v -1.300003 5.105066 -5.885133
v 1.300002 5.105065 -5.885133
v -1.299998 5.105065 -5.885133
v 1.300002 5.305066 -5.885133
v 1.300002 5.305066 -5.885133
v 1.300002 5.305066 -5.685133
v -1.300003 5.305066 -5.885133
v -1.300003 5.305066 -5.685133
v 1.300002 5.305065 -5.685133
v -1.299998 5.305065 -5.685133
v 1.300002 5.505065 -5.685133
v 1.300002 5.505065 -5.685133
v 1.300002 5.505065 -5.485133
v -1.300003 5.505065 -5.685133
v -1.300003 5.505065 -5.485133
v 1.300002 5.505065 -5.485133
v -1.299998 5.505065 -5.485133
v 1.300002 5.705065 -5.485133
v 1.300002 5.705065 -5.485133
v 1.300002 5.705065 -5.285133
v -1.300003 5.705065 -5.485133
v -1.300003 5.705065 -5.285133
v 1.300002 5.705065 -5.285133
v -1.299998 5.705065 -5.285133
v 1.300002 5.905065 -5.285133
v 1.300002 5.905065 -5.285133
v 1.300002 5.905065 -5.085134
v -1.300003 5.905065 -5.285133
v -1.300003 5.905065 -5.085134
v 1.300002 5.905065 -5.085134
v -1.299998 5.905065 -5.085134
v 1.300002 6.105065 -5.085134
v 1.300002 6.105065 -5.085134
v 1.300002 6.105065 -4.885134
v -1.300003 6.105065 -5.085134
v -1.300003 6.105065 -4.885134
v 1.300002 6.105064 -4.885134
v -1.299998 6.105064 -4.885134
v 1.300002 6.305065 -4.885134
v 1.300002 6.305065 -4.885134
v 1.300002 6.305065 -4.685134
v -1.300003 6.305065 -4.885134
v -1.300003 6.305065 -4.685134
v 1.300002 6.305064 -4.685134
v -1.299998 6.305064 -4.685134
v 1.300002 6.505064 -4.685134
v 1.300002 6.505064 -4.685134
v 1.300002 6.505064 -4.485134
v -1.300003 6.505064 -4.685134
v -1.300003 6.505064 -4.485134
v 1.300002 6.505064 -4.485134
v -1.299998 6.505064 -4.485134
v 1.300002 6.705064 -4.485134
v 1.300002 6.705064 -4.485134
v 1.300002 6.705064 -4.285134
v -1.300003 6.705064 -4.485134
v -1.300003 6.705064 -4.285134
v 1.300002 6.705064 -4.285134
v -1.299998 6.705064 -4.285134
v 1.300002 6.905064 -4.285134
v 1.300002 6.905064 -4.285134
v 1.300002 6.905064 -4.085135
v -1.300003 6.905064 -4.285134
v -1.300003 6.905064 -4.085135
v 1.300002 6.905064 -4.085135
v -1.299998 6.905064 -4.085135
v 1.300002 7.000000 -4.085135
v -1.300003 7.000000 -4.085135
vn 0.0000 -1.0000 -0.0000
vn -1.0000 0.0000 -0.0000
vn 1.0000 0.0000 0.0000
vn 0.0014 -0.0134 0.9999
vn 0.0000 0.0000 -1.0000
vn 0.0000 1.0000 0.0000
vn -0.0000 0.0000 1.0000
vn -0.0048 -0.0120 0.9999
vn 0.0048 -0.0120 0.9999
vn -0.0014 -0.0134 0.9999
vn 0.0000 -0.0240 0.9997
vn 0.0000 0.7073 0.7070
vn 0.0000 -1.0000 0.0074
vn 0.0000 -0.7133 -0.7008
vn 0.0000 0.7066 -0.7076
vn 0.0000 0.7065 -0.7077
vn 0.0000 0.0065 1.0000
vn 0.0000 1.0000 -0.0065
vn 0.0000 -1.0000 0.0065
usemtl Material
s off
f 65//1 66//1 3//1 4//1
f 8//2 7//2 20//2 19//2
f 1//3 9//3 10//3 2//3
f 66//4 68//4 12//4 3//4
f 3//2 12//2 11//2 4//2
f 67//5 65//5 4//5 11//5
f 5//6 6//6 10//6 9//6
f 101//6 5//6 9//6 99//6
f 70//6 7//6 12//6 68//6
f 7//6 8//6 11//6 12//6
f 14//3 13//3 25//3 26//3
f 69//5 8//5 19//5 71//5
f 102//7 6//7 18//7 104//7
f 6//3 5//3 17//3 18//3
f 13//6 14//6 18//6 17//6
f 105//6 13//6 17//6 103//6
f 74//6 16//6 20//6 72//6
f 16//6 15//6 19//6 20//6
f 110//7 22//7 34//7 112//7
f 15//2 16//2 28//2 27//2
f 73//5 15//5 27//5 75//5
f 106//7 14//7 26//7 108//7
f 21//6 22//6 26//6 25//6
f 109//6 21//6 25//6 107//6
f 78//6 24//6 28//6 76//6
f 24//6 23//6 27//6 28//6
f 81//5 31//5 43//5 83//5
f 22//3 21//3 33//3 34//3
f 23//2 24//2 36//2 35//2
f 77//5 23//5 35//5 79//5
f 29//6 30//6 34//6 33//6
f 113//6 29//6 33//6 111//6
f 82//6 32//6 36//6 80//6
f 32//6 31//6 35//6 36//6
f 39//2 40//2 52//2 51//2
f 114//7 30//7 42//7 116//7
f 30//3 29//3 41//3 42//3
f 31//2 32//2 44//2 43//2
f 37//6 38//6 42//6 41//6
f 117//6 37//6 41//6 115//6
f 86//6 40//6 44//6 84//6
f 40//6 39//6 43//6 44//6
f 122//8 46//8 58//8 124//8
f 85//5 39//5 51//5 87//5
f 118//7 38//7 50//7 120//7
f 38//3 37//3 49//3 50//3
f 45//6 46//6 50//6 49//6
f 121//6 45//6 49//6 119//6
f 90//6 48//6 52//6 88//6
f 48//6 47//6 51//6 52//6
f 126//7 54//7 62//7 128//7
f 46//3 45//3 57//3 58//3
f 47//2 48//2 60//2 59//2
f 89//5 47//5 59//5 91//5
f 53//6 54//6 58//6 57//6
f 125//6 53//6 57//6 123//6
f 94//6 56//6 60//6 92//6
f 56//6 55//6 59//6 60//6
f 95//6 63//6 64//6 96//6
f 54//3 53//3 61//3 62//3
f 55//2 56//2 64//2 63//2
f 93//5 55//5 63//5 95//5
f 125//5 93//5 95//5 127//5
f 127//6 95//6 96//6 128//6
f 126//6 94//6 92//6 124//6
f 55//6 93//6 91//6 59//6
f 121//5 89//5 91//5 123//5
f 56//7 94//7 96//7 64//7
f 47//6 89//6 87//6 51//6
f 40//7 86//7 88//7 52//7
f 65//7 97//7 131//7 132//7
f 48//9 90//9 92//9 60//9
f 39//6 85//6 83//6 43//6
f 32//7 82//7 84//7 44//7
f 31//6 81//6 79//6 35//6
f 89//7 65//7 132//7 134//7
f 23//6 77//6 75//6 27//6
f 16//7 74//7 76//7 28//7
f 24//7 78//7 80//7 36//7
f 15//6 73//6 71//6 19//6
f 7//7 70//7 72//7 20//7
f 8//6 69//6 67//6 11//6
f 97//1 98//1 66//1 65//1
f 1//1 2//1 98//1 97//1
f 2//10 10//10 100//10 98//10
f 9//5 1//5 97//5 99//5
f 6//6 102//6 100//6 10//6
f 5//5 101//5 103//5 17//5
f 14//6 106//6 104//6 18//6
f 13//5 105//5 107//5 25//5
f 22//6 110//6 108//6 26//6
f 29//5 113//5 115//5 41//5
f 21//5 109//5 111//5 33//5
f 30//6 114//6 112//6 34//6
f 38//6 118//6 116//6 42//6
f 37//5 117//5 119//5 49//5
f 46//6 122//6 120//6 50//6
f 45//5 121//5 123//5 57//5
f 54//6 126//6 124//6 58//6
f 61//6 127//6 128//6 62//6
f 53//5 125//5 127//5 61//5
f 93//6 125//6 123//6 91//6
f 94//7 126//7 128//7 96//7
f 132//7 131//7 137//7 135//7
f 90//11 122//11 124//11 92//11
f 97//7 121//7 133//7 131//7
f 98//3 122//3 124//3 129//3
f 92//12 130//12 129//12 124//12
f 66//13 98//13 129//13 130//13
f 90//2 66//2 130//2 92//2
f 121//7 89//7 134//7 133//7
f 122//14 98//14 66//14 90//14
f 136//7 135//7 139//7 140//7
f 131//7 133//7 138//7 137//7
f 133//7 134//7 136//7 138//7
f 134//7 132//7 135//7 136//7
f 139//6 141//6 144//6 143//6
f 135//7 137//7 141//7 139//7
f 137//7 138//7 142//7 141//7
f 138//7 136//7 140//7 142//7
f 144//5 146//5 155//5 153//5
f 141//2 142//2 123//2 144//2
f 142//5 140//5 91//5 123//5
f 140//2 91//2 143//2 139//2
f 147//3 148//3 151//3 152//3
f 145//15 146//15 148//15 147//15
f 150//15 152//15 151//15 149//15
f 150//2 91//2 93//2 160//2
f 143//2 91//2 150//2 149//2
f 148//5 143//5 149//5 151//5
f 153//16 155//16 156//16 154//16
f 123//3 144//3 153//3 154//3
f 156//2 145//2 161//2 163//2
f 146//2 145//2 156//2 155//2
f 93//7 157//7 159//7 160//7
f 152//6 150//6 160//6 159//6
f 91//1 147//1 157//1 93//1
f 147//3 152//3 159//3 157//3
f 161//17 158//17 162//17 163//17
f 154//18 156//18 163//18 162//18
f 145//19 123//19 158//19 161//19
f 123//3 154//3 162//3 158//3
f 165//7 164//7 166//7 167//7
f 172//6 171//6 173//6 174//6
f 170//5 168//5 169//5 173//5
f 179//6 178//6 180//6 181//6
f 177//5 175//5 176//5 180//5
f 186//6 185//6 187//6 188//6
f 184//5 182//5 183//5 187//5
f 193//6 192//6 194//6 195//6
f 191//5 189//5 190//5 194//5
f 200//6 199//6 201//6 202//6
f 198//5 196//5 197//5 201//5
f 207//6 206//6 208//6 209//6
f 205//5 203//5 204//5 208//5
f 214//6 213//6 215//6 216//6
f 212//5 210//5 211//5 215//5
f 221//6 220//6 222//6 223//6
f 219//5 217//5 218//5 222//5
f 228//6 227//6 229//6 230//6
f 226//5 224//5 225//5 229//5
f 235//6 234//6 236//6 237//6
f 233//5 231//5 232//5 236//5
f 242//6 241//6 243//6 244//6
f 240//5 238//5 239//5 243//5
f 249//6 248//6 250//6 251//6
f 247//5 245//5 246//5 250//5
f 256//6 255//6 257//6 258//6
f 254//5 252//5 253//5 257//5
f 263//6 262//6 264//6 265//6
f 261//5 259//5 260//5 264//5
f 270//6 269//6 271//6 272//6
f 268//5 266//5 267//5 271//5
f 277//6 276//6 278//6 279//6
f 275//5 273//5 274//5 278//5
f 284//6 283//6 285//6 286//6
f 282//5 280//5 281//5 285//5
f 291//6 290//6 292//6 293//6
f 289//5 287//5 288//5 292//5
f 298//6 297//6 299//6 300//6
f 296//5 294//5 295//5 299//5
f 305//6 304//6 306//6 307//6
f 303//5 301//5 302//5 306//5
f 312//6 311//6 313//6 314//6
f 310//5 308//5 309//5 313//5
f 319//6 318//6 320//6 321//6
f 317//5 315//5 316//5 320//5
f 326//6 325//6 327//6 328//6
f 324//5 322//5 323//5 327//5
f 333//6 332//6 334//6 335//6
f 331//5 329//5 330//5 334//5
f 340//6 339//6 341//6 342//6
f 338//5 336//5 337//5 341//5
f 347//6 346//6 348//6 349//6
f 345//5 343//5 344//5 348//5
f 354//6 353//6 355//6 356//6
f 352//5 350//5 351//5 355//5
f 361//6 360//6 362//6 363//6
f 359//5 357//5 358//5 362//5
f 368//6 367//6 369//6 370//6
f 366//5 364//5 365//5 369//5
f 375//6 374//6 376//6 377//6
f 373//5 371//5 372//5 376//5
f 382//6 381//6 383//6 384//6
f 380//5 378//5 379//5 383//5
f 389//6 388//6 390//6 391//6
f 387//5 385//5 386//5 390//5
f 396//6 395//6 397//6 398//6
f 394//5 392//5 393//5 397//5
f 403//6 402//6 404//6 405//6
f 401//5 399//5 400//5 404//5
f 408//6 409//6 147//6 145//6
f 408//5 406//5 407//5 409//5
